<?xml version="1.0" encoding="iso-8859-1"?>
<!-- Generator: Adobe Illustrator 19.0.0, SVG Export Plug-In . SVG Version: 6.00 Build 0)  -->
<svg xmlns="http://www.w3.org/2000/svg" xmlns:xlink="http://www.w3.org/1999/xlink" version="1.1" id="Capa_1" x="0px" y="0px" viewBox="0 0 512 512" style="enable-background:new 0 0 512 512;" xml:space="preserve" width="512" height="512">
<g>
	<path style="fill:#DBEAFF;" d="M488,380.071L375.623,192.776c-4.301-7.169-13.397-9.818-20.875-6.079l-13.59,6.795   c-3.08,1.54-6.8,0.936-9.235-1.499l-63.378-63.378c-6.709-6.709-17.749-6.139-23.732,1.224L80,332.071v48H488z"/>
	<path style="fill:#C3DDFF;" d="M341.157,193.492c-3.08,1.54-6.8,0.936-9.234-1.499l-2.374-2.374L274.5,377.825l7.68,2.246h8.336   l55.248-188.882L341.157,193.492z"/>
	<path style="fill:#C3DDFF;" d="M192,260.071l71.069-135.044c-6.263-2.451-13.714-0.777-18.256,4.812L80,332.071v48h112V260.071z"/>
	<path style="fill:#C3DDFF;" d="M250.278,229.008c-5.924-5.151-14.711-5.244-20.742-0.218L192,260.071l-44.649-19.136   c-6.687-2.866-14.466-0.859-18.932,4.883L24,380.071h400L250.278,229.008z"/>
	<path style="fill:#A4CCFF;" d="M147.351,240.935c-6.687-2.866-14.466-0.859-18.932,4.883L24,380.071h224l-56-120L147.351,240.935z"/>
	<path style="fill:#8BB3EA;" d="M147.351,240.935c-6.687-2.866-14.466-0.859-18.932,4.883L24,380.071h64l73.846-132.923   L147.351,240.935z"/>
	<path style="fill:#C3DDFF;" d="M504,388.071H8c-4.422,0-8-3.582-8-8s3.578-8,8-8h496c4.422,0,8,3.582,8,8   S508.422,388.071,504,388.071z"/>
</g>















</svg>
